<svg id="art" width="210mm" height="297mm" viewBox="0 0 210 297"><defs><g id="tile"><rect x="0.8400000000000001" y="0.8400000000000001" width="6.720000000000001" height="6.720000000000001" stroke-width="0.336" class="whiteLine" fill="none"></rect><rect x="1.6800000000000002" y="1.6800000000000002" width="1.26" height="5.04" stroke-width="0.672" fill="none"></rect><rect x="3.3600000000000003" y="4.2" width="3.3600000000000003" height="1.008" stroke-width="0.336" fill="none"></rect><rect x="5.88" y="5.88" width="1.6800000000000002" height="1.6800000000000002" stroke-width="0.672" fill="none"></rect></g></defs><use href="#tile" class="yellow" transform="translate(0,0) rotate(0 4.2 4.2)"></use><use href="#tile" class="green" transform="translate(8.4,0) rotate(0 4.2 4.2)"></use><use href="#tile" class="pink" transform="translate(16.8,0) rotate(0 4.2 4.2)"></use><use href="#tile" class="yellow" transform="translate(25.200000000000003,0) rotate(0 4.2 4.2)"></use><use href="#tile" class="blue" transform="translate(33.6,0) rotate(0 4.2 4.2)"></use><use href="#tile" class="green" transform="translate(42,0) rotate(0 4.2 4.2)"></use><use href="#tile" class="pink" transform="translate(50.400000000000006,0) rotate(0 4.2 4.2)"></use><use href="#tile" class="blue" transform="translate(58.800000000000004,0) rotate(0 4.2 4.2)"></use><use href="#tile" class="blue" transform="translate(67.2,0) rotate(0 4.2 4.2)"></use><use href="#tile" class="blue" transform="translate(75.60000000000001,0) rotate(0 4.2 4.2)"></use><use href="#tile" class="blue" transform="translate(84,0) rotate(0 4.2 4.2)"></use><use href="#tile" class="blue" transform="translate(92.4,0) rotate(0 4.2 4.2)"></use><use href="#tile" class="green" transform="translate(100.80000000000001,0) rotate(0 4.2 4.2)"></use><use href="#tile" class="green" transform="translate(109.2,0) rotate(0 4.2 4.2)"></use><use href="#tile" class="pink" transform="translate(117.60000000000001,0) rotate(0 4.2 4.2)"></use><use href="#tile" class="green" transform="translate(126,0) rotate(0 4.2 4.2)"></use><use href="#tile" class="pink" transform="translate(134.4,0) rotate(0 4.2 4.2)"></use><use href="#tile" class="blue" transform="translate(142.8,0) rotate(0 4.2 4.2)"></use><use href="#tile" class="green" transform="translate(151.20000000000002,0) rotate(0 4.2 4.2)"></use><use href="#tile" class="yellow" transform="translate(159.6,0) rotate(0 4.2 4.2)"></use><use href="#tile" class="yellow" transform="translate(168,0) rotate(0 4.2 4.2)"></use><use href="#tile" class="green" transform="translate(176.4,0) rotate(0 4.2 4.2)"></use><use href="#tile" class="yellow" transform="translate(184.8,0) rotate(0 4.2 4.2)"></use><use href="#tile" class="blue" transform="translate(193.20000000000002,0) rotate(0 4.2 4.2)"></use><use href="#tile" class="blue" transform="translate(201.60000000000002,0) rotate(0 4.2 4.2)"></use><use href="#tile" class="yellow" transform="translate(0,8.4) rotate(90 4.2 4.2)"></use><use href="#tile" class="yellow" transform="translate(8.4,8.4) rotate(180 4.2 4.2)"></use><use href="#tile" class="yellow" transform="translate(16.8,8.4) rotate(270 4.2 4.2)"></use><use href="#tile" class="pink" transform="translate(25.200000000000003,8.4) rotate(0 4.2 4.2)"></use><use href="#tile" class="green" transform="translate(33.6,8.4) rotate(90 4.2 4.2)"></use><use href="#tile" class="yellow" transform="translate(42,8.4) rotate(180 4.2 4.2)"></use><use href="#tile" class="green" transform="translate(50.400000000000006,8.4) rotate(270 4.2 4.2)"></use><use href="#tile" class="green" transform="translate(58.800000000000004,8.4) rotate(0 4.2 4.2)"></use><use href="#tile" class="blue" transform="translate(67.2,8.4) rotate(90 4.2 4.2)"></use><use href="#tile" class="yellow" transform="translate(75.60000000000001,8.4) rotate(180 4.2 4.2)"></use><use href="#tile" class="yellow" transform="translate(84,8.4) rotate(270 4.2 4.2)"></use><use href="#tile" class="green" transform="translate(92.4,8.4) rotate(0 4.2 4.2)"></use><use href="#tile" class="blue" transform="translate(100.80000000000001,8.4) rotate(90 4.2 4.2)"></use><use href="#tile" class="blue" transform="translate(109.2,8.4) rotate(180 4.2 4.2)"></use><use href="#tile" class="yellow" transform="translate(117.60000000000001,8.4) rotate(270 4.2 4.2)"></use><use href="#tile" class="blue" transform="translate(126,8.4) rotate(0 4.2 4.2)"></use><use href="#tile" class="pink" transform="translate(134.4,8.4) rotate(90 4.2 4.2)"></use><use href="#tile" class="blue" transform="translate(142.8,8.4) rotate(180 4.2 4.2)"></use><use href="#tile" class="green" transform="translate(151.20000000000002,8.4) rotate(270 4.2 4.2)"></use><use href="#tile" class="blue" transform="translate(159.6,8.4) rotate(0 4.2 4.2)"></use><use href="#tile" class="green" transform="translate(168,8.4) rotate(90 4.2 4.2)"></use><use href="#tile" class="blue" transform="translate(176.4,8.4) rotate(180 4.2 4.2)"></use><use href="#tile" class="green" transform="translate(184.8,8.4) rotate(270 4.2 4.2)"></use><use href="#tile" class="blue" transform="translate(193.20000000000002,8.4) rotate(0 4.2 4.2)"></use><use href="#tile" class="yellow" transform="translate(201.60000000000002,8.4) rotate(90 4.2 4.2)"></use><use href="#tile" class="pink" transform="translate(0,16.8) rotate(180 4.2 4.2)"></use><use href="#tile" class="yellow" transform="translate(8.4,16.8) rotate(0 4.2 4.2)"></use><use href="#tile" class="yellow" transform="translate(16.8,16.8) rotate(180 4.2 4.2)"></use><use href="#tile" class="yellow" transform="translate(25.200000000000003,16.8) rotate(0 4.2 4.2)"></use><use href="#tile" class="green" transform="translate(33.6,16.8) rotate(180 4.2 4.2)"></use><use href="#tile" class="blue" transform="translate(42,16.8) rotate(0 4.2 4.2)"></use><use href="#tile" class="pink" transform="translate(50.400000000000006,16.8) rotate(180 4.2 4.2)"></use><use href="#tile" class="yellow" transform="translate(58.800000000000004,16.8) rotate(0 4.2 4.2)"></use><use href="#tile" class="blue" transform="translate(67.2,16.8) rotate(180 4.2 4.2)"></use><use href="#tile" class="yellow" transform="translate(75.60000000000001,16.8) rotate(0 4.2 4.2)"></use><use href="#tile" class="green" transform="translate(84,16.8) rotate(180 4.2 4.2)"></use><use href="#tile" class="green" transform="translate(92.4,16.8) rotate(0 4.2 4.2)"></use><use href="#tile" class="pink" transform="translate(100.80000000000001,16.8) rotate(180 4.2 4.2)"></use><use href="#tile" class="green" transform="translate(109.2,16.8) rotate(0 4.2 4.2)"></use><use href="#tile" class="blue" transform="translate(117.60000000000001,16.8) rotate(180 4.2 4.2)"></use><use href="#tile" class="pink" transform="translate(126,16.8) rotate(0 4.2 4.2)"></use><use href="#tile" class="pink" transform="translate(134.4,16.8) rotate(180 4.2 4.2)"></use><use href="#tile" class="pink" transform="translate(142.8,16.8) rotate(0 4.2 4.2)"></use><use href="#tile" class="pink" transform="translate(151.20000000000002,16.8) rotate(180 4.2 4.2)"></use><use href="#tile" class="blue" transform="translate(159.6,16.8) rotate(0 4.2 4.2)"></use><use href="#tile" class="pink" transform="translate(168,16.8) rotate(180 4.2 4.2)"></use><use href="#tile" class="green" transform="translate(176.4,16.8) rotate(0 4.2 4.2)"></use><use href="#tile" class="pink" transform="translate(184.8,16.8) rotate(180 4.2 4.2)"></use><use href="#tile" class="yellow" transform="translate(193.20000000000002,16.8) rotate(0 4.2 4.2)"></use><use href="#tile" class="green" transform="translate(201.60000000000002,16.8) rotate(180 4.2 4.2)"></use><use href="#tile" class="yellow" transform="translate(0,25.200000000000003) rotate(270 4.2 4.2)"></use><use href="#tile" class="green" transform="translate(8.4,25.200000000000003) rotate(180 4.2 4.2)"></use><use href="#tile" class="green" transform="translate(16.8,25.200000000000003) rotate(90 4.2 4.2)"></use><use href="#tile" class="yellow" transform="translate(25.200000000000003,25.200000000000003) rotate(0 4.2 4.2)"></use><use href="#tile" class="blue" transform="translate(33.6,25.200000000000003) rotate(270 4.2 4.2)"></use><use href="#tile" class="green" transform="translate(42,25.200000000000003) rotate(180 4.2 4.2)"></use><use href="#tile" class="yellow" transform="translate(50.400000000000006,25.200000000000003) rotate(90 4.2 4.2)"></use><use href="#tile" class="green" transform="translate(58.800000000000004,25.200000000000003) rotate(0 4.2 4.2)"></use><use href="#tile" class="blue" transform="translate(67.2,25.200000000000003) rotate(270 4.2 4.2)"></use><use href="#tile" class="pink" transform="translate(75.60000000000001,25.200000000000003) rotate(180 4.2 4.2)"></use><use href="#tile" class="green" transform="translate(84,25.200000000000003) rotate(90 4.2 4.2)"></use><use href="#tile" class="pink" transform="translate(92.4,25.200000000000003) rotate(0 4.2 4.2)"></use><use href="#tile" class="pink" transform="translate(100.80000000000001,25.200000000000003) rotate(270 4.2 4.2)"></use><use href="#tile" class="yellow" transform="translate(109.2,25.200000000000003) rotate(180 4.2 4.2)"></use><use href="#tile" class="blue" transform="translate(117.60000000000001,25.200000000000003) rotate(90 4.2 4.2)"></use><use href="#tile" class="yellow" transform="translate(126,25.200000000000003) rotate(0 4.2 4.2)"></use><use href="#tile" class="blue" transform="translate(134.4,25.200000000000003) rotate(270 4.2 4.2)"></use><use href="#tile" class="green" transform="translate(142.8,25.200000000000003) rotate(180 4.2 4.2)"></use><use href="#tile" class="green" transform="translate(151.20000000000002,25.200000000000003) rotate(90 4.2 4.2)"></use><use href="#tile" class="green" transform="translate(159.6,25.200000000000003) rotate(0 4.2 4.2)"></use><use href="#tile" class="pink" transform="translate(168,25.200000000000003) rotate(270 4.2 4.2)"></use><use href="#tile" class="blue" transform="translate(176.4,25.200000000000003) rotate(180 4.2 4.2)"></use><use href="#tile" class="yellow" transform="translate(184.8,25.200000000000003) rotate(90 4.2 4.2)"></use><use href="#tile" class="pink" transform="translate(193.20000000000002,25.200000000000003) rotate(0 4.2 4.2)"></use><use href="#tile" class="yellow" transform="translate(201.60000000000002,25.200000000000003) rotate(270 4.2 4.2)"></use><use href="#tile" class="pink" transform="translate(0,33.6) rotate(0 4.2 4.2)"></use><use href="#tile" class="blue" transform="translate(8.4,33.6) rotate(0 4.2 4.2)"></use><use href="#tile" class="blue" transform="translate(16.8,33.6) rotate(0 4.2 4.2)"></use><use href="#tile" class="yellow" transform="translate(25.200000000000003,33.6) rotate(0 4.2 4.2)"></use><use href="#tile" class="pink" transform="translate(33.6,33.6) rotate(0 4.2 4.2)"></use><use href="#tile" class="pink" transform="translate(42,33.6) rotate(0 4.2 4.2)"></use><use href="#tile" class="yellow" transform="translate(50.400000000000006,33.6) rotate(0 4.2 4.2)"></use><use href="#tile" class="green" transform="translate(58.800000000000004,33.6) rotate(0 4.2 4.2)"></use><use href="#tile" class="pink" transform="translate(67.2,33.6) rotate(0 4.2 4.2)"></use><use href="#tile" class="blue" transform="translate(75.60000000000001,33.6) rotate(0 4.2 4.2)"></use><use href="#tile" class="green" transform="translate(84,33.6) rotate(0 4.2 4.2)"></use><use href="#tile" class="blue" transform="translate(92.4,33.6) rotate(0 4.2 4.2)"></use><use href="#tile" class="pink" transform="translate(100.80000000000001,33.6) rotate(0 4.2 4.2)"></use><use href="#tile" class="pink" transform="translate(109.2,33.6) rotate(0 4.2 4.2)"></use><use href="#tile" class="blue" transform="translate(117.60000000000001,33.6) rotate(0 4.2 4.2)"></use><use href="#tile" class="green" transform="translate(126,33.6) rotate(0 4.2 4.2)"></use><use href="#tile" class="pink" transform="translate(134.4,33.6) rotate(0 4.2 4.2)"></use><use href="#tile" class="yellow" transform="translate(142.8,33.6) rotate(0 4.2 4.2)"></use><use href="#tile" class="green" transform="translate(151.20000000000002,33.6) rotate(0 4.2 4.2)"></use><use href="#tile" class="blue" transform="translate(159.6,33.6) rotate(0 4.2 4.2)"></use><use href="#tile" class="yellow" transform="translate(168,33.6) rotate(0 4.2 4.2)"></use><use href="#tile" class="blue" transform="translate(176.4,33.6) rotate(0 4.2 4.2)"></use><use href="#tile" class="blue" transform="translate(184.8,33.6) rotate(0 4.2 4.2)"></use><use href="#tile" class="yellow" transform="translate(193.20000000000002,33.6) rotate(0 4.2 4.2)"></use><use href="#tile" class="green" transform="translate(201.60000000000002,33.6) rotate(0 4.2 4.2)"></use><use href="#tile" class="yellow" transform="translate(0,42) rotate(90 4.2 4.2)"></use><use href="#tile" class="pink" transform="translate(8.4,42) rotate(180 4.2 4.2)"></use><use href="#tile" class="blue" transform="translate(16.8,42) rotate(270 4.2 4.2)"></use><use href="#tile" class="blue" transform="translate(25.200000000000003,42) rotate(0 4.2 4.2)"></use><use href="#tile" class="green" transform="translate(33.6,42) rotate(90 4.2 4.2)"></use><use href="#tile" class="pink" transform="translate(42,42) rotate(180 4.2 4.2)"></use><use href="#tile" class="green" transform="translate(50.400000000000006,42) rotate(270 4.2 4.2)"></use><use href="#tile" class="blue" transform="translate(58.800000000000004,42) rotate(0 4.2 4.2)"></use><use href="#tile" class="pink" transform="translate(67.2,42) rotate(90 4.2 4.2)"></use><use href="#tile" class="pink" transform="translate(75.60000000000001,42) rotate(180 4.2 4.2)"></use><use href="#tile" class="blue" transform="translate(84,42) rotate(270 4.2 4.2)"></use><use href="#tile" class="green" transform="translate(92.4,42) rotate(0 4.2 4.2)"></use><use href="#tile" class="yellow" transform="translate(100.80000000000001,42) rotate(90 4.2 4.2)"></use><use href="#tile" class="green" transform="translate(109.2,42) rotate(180 4.2 4.2)"></use><use href="#tile" class="green" transform="translate(117.60000000000001,42) rotate(270 4.2 4.2)"></use><use href="#tile" class="yellow" transform="translate(126,42) rotate(0 4.2 4.2)"></use><use href="#tile" class="green" transform="translate(134.4,42) rotate(90 4.2 4.2)"></use><use href="#tile" class="pink" transform="translate(142.8,42) rotate(180 4.2 4.2)"></use><use href="#tile" class="yellow" transform="translate(151.20000000000002,42) rotate(270 4.2 4.2)"></use><use href="#tile" class="pink" transform="translate(159.6,42) rotate(0 4.2 4.2)"></use><use href="#tile" class="yellow" transform="translate(168,42) rotate(90 4.2 4.2)"></use><use href="#tile" class="yellow" transform="translate(176.4,42) rotate(180 4.2 4.2)"></use><use href="#tile" class="blue" transform="translate(184.8,42) rotate(270 4.2 4.2)"></use><use href="#tile" class="yellow" transform="translate(193.20000000000002,42) rotate(0 4.2 4.2)"></use><use href="#tile" class="green" transform="translate(201.60000000000002,42) rotate(90 4.2 4.2)"></use><use href="#tile" class="green" transform="translate(0,50.400000000000006) rotate(180 4.2 4.2)"></use><use href="#tile" class="yellow" transform="translate(8.4,50.400000000000006) rotate(0 4.2 4.2)"></use><use href="#tile" class="pink" transform="translate(16.8,50.400000000000006) rotate(180 4.2 4.2)"></use><use href="#tile" class="yellow" transform="translate(25.200000000000003,50.400000000000006) rotate(0 4.2 4.2)"></use><use href="#tile" class="blue" transform="translate(33.6,50.400000000000006) rotate(180 4.2 4.2)"></use><use href="#tile" class="yellow" transform="translate(42,50.400000000000006) rotate(0 4.2 4.2)"></use><use href="#tile" class="yellow" transform="translate(50.400000000000006,50.400000000000006) rotate(180 4.2 4.2)"></use><use href="#tile" class="green" transform="translate(58.800000000000004,50.400000000000006) rotate(0 4.2 4.2)"></use><use href="#tile" class="pink" transform="translate(67.2,50.400000000000006) rotate(180 4.2 4.2)"></use><use href="#tile" class="pink" transform="translate(75.60000000000001,50.400000000000006) rotate(0 4.2 4.2)"></use><use href="#tile" class="green" transform="translate(84,50.400000000000006) rotate(180 4.2 4.2)"></use><use href="#tile" class="yellow" transform="translate(92.4,50.400000000000006) rotate(0 4.2 4.2)"></use><use href="#tile" class="green" transform="translate(100.80000000000001,50.400000000000006) rotate(180 4.2 4.2)"></use><use href="#tile" class="blue" transform="translate(109.2,50.400000000000006) rotate(0 4.2 4.2)"></use><use href="#tile" class="yellow" transform="translate(117.60000000000001,50.400000000000006) rotate(180 4.2 4.2)"></use><use href="#tile" class="yellow" transform="translate(126,50.400000000000006) rotate(0 4.2 4.2)"></use><use href="#tile" class="green" transform="translate(134.4,50.400000000000006) rotate(180 4.2 4.2)"></use><use href="#tile" class="yellow" transform="translate(142.8,50.400000000000006) rotate(0 4.2 4.2)"></use><use href="#tile" class="green" transform="translate(151.20000000000002,50.400000000000006) rotate(180 4.2 4.2)"></use><use href="#tile" class="yellow" transform="translate(159.6,50.400000000000006) rotate(0 4.2 4.2)"></use><use href="#tile" class="yellow" transform="translate(168,50.400000000000006) rotate(180 4.2 4.2)"></use><use href="#tile" class="blue" transform="translate(176.4,50.400000000000006) rotate(0 4.2 4.2)"></use><use href="#tile" class="blue" transform="translate(184.8,50.400000000000006) rotate(180 4.2 4.2)"></use><use href="#tile" class="yellow" transform="translate(193.20000000000002,50.400000000000006) rotate(0 4.2 4.2)"></use><use href="#tile" class="green" transform="translate(201.60000000000002,50.400000000000006) rotate(180 4.2 4.2)"></use><use href="#tile" class="green" transform="translate(0,58.800000000000004) rotate(270 4.2 4.2)"></use><use href="#tile" class="blue" transform="translate(8.4,58.800000000000004) rotate(180 4.2 4.2)"></use><use href="#tile" class="blue" transform="translate(16.8,58.800000000000004) rotate(90 4.2 4.2)"></use><use href="#tile" class="yellow" transform="translate(25.200000000000003,58.800000000000004) rotate(0 4.2 4.2)"></use><use href="#tile" class="blue" transform="translate(33.6,58.800000000000004) rotate(270 4.2 4.2)"></use><use href="#tile" class="yellow" transform="translate(42,58.800000000000004) rotate(180 4.2 4.2)"></use><use href="#tile" class="blue" transform="translate(50.400000000000006,58.800000000000004) rotate(90 4.2 4.2)"></use><use href="#tile" class="blue" transform="translate(58.800000000000004,58.800000000000004) rotate(0 4.2 4.2)"></use><use href="#tile" class="pink" transform="translate(67.2,58.800000000000004) rotate(270 4.2 4.2)"></use><use href="#tile" class="blue" transform="translate(75.60000000000001,58.800000000000004) rotate(180 4.2 4.2)"></use><use href="#tile" class="yellow" transform="translate(84,58.800000000000004) rotate(90 4.2 4.2)"></use><use href="#tile" class="blue" transform="translate(92.4,58.800000000000004) rotate(0 4.2 4.2)"></use><use href="#tile" class="yellow" transform="translate(100.80000000000001,58.800000000000004) rotate(270 4.2 4.2)"></use><use href="#tile" class="yellow" transform="translate(109.2,58.800000000000004) rotate(180 4.2 4.2)"></use><use href="#tile" class="blue" transform="translate(117.60000000000001,58.800000000000004) rotate(90 4.2 4.2)"></use><use href="#tile" class="yellow" transform="translate(126,58.800000000000004) rotate(0 4.2 4.2)"></use><use href="#tile" class="yellow" transform="translate(134.4,58.800000000000004) rotate(270 4.2 4.2)"></use><use href="#tile" class="yellow" transform="translate(142.8,58.800000000000004) rotate(180 4.2 4.2)"></use><use href="#tile" class="yellow" transform="translate(151.20000000000002,58.800000000000004) rotate(90 4.2 4.2)"></use><use href="#tile" class="yellow" transform="translate(159.6,58.800000000000004) rotate(0 4.2 4.2)"></use><use href="#tile" class="pink" transform="translate(168,58.800000000000004) rotate(270 4.2 4.2)"></use><use href="#tile" class="green" transform="translate(176.4,58.800000000000004) rotate(180 4.2 4.2)"></use><use href="#tile" class="green" transform="translate(184.8,58.800000000000004) rotate(90 4.2 4.2)"></use><use href="#tile" class="yellow" transform="translate(193.20000000000002,58.800000000000004) rotate(0 4.2 4.2)"></use><use href="#tile" class="green" transform="translate(201.60000000000002,58.800000000000004) rotate(270 4.2 4.2)"></use><use href="#tile" class="green" transform="translate(0,67.2) rotate(0 4.2 4.2)"></use><use href="#tile" class="pink" transform="translate(8.4,67.2) rotate(0 4.2 4.2)"></use><use href="#tile" class="green" transform="translate(16.8,67.2) rotate(0 4.2 4.2)"></use><use href="#tile" class="yellow" transform="translate(25.200000000000003,67.2) rotate(0 4.2 4.2)"></use><use href="#tile" class="yellow" transform="translate(33.6,67.2) rotate(0 4.2 4.2)"></use><use href="#tile" class="blue" transform="translate(42,67.2) rotate(0 4.2 4.2)"></use><use href="#tile" class="blue" transform="translate(50.400000000000006,67.2) rotate(0 4.2 4.2)"></use><use href="#tile" class="green" transform="translate(58.800000000000004,67.2) rotate(0 4.2 4.2)"></use><use href="#tile" class="pink" transform="translate(67.2,67.2) rotate(0 4.2 4.2)"></use><use href="#tile" class="blue" transform="translate(75.60000000000001,67.2) rotate(0 4.2 4.2)"></use><use href="#tile" class="yellow" transform="translate(84,67.2) rotate(0 4.2 4.2)"></use><use href="#tile" class="yellow" transform="translate(92.4,67.2) rotate(0 4.2 4.2)"></use><use href="#tile" class="blue" transform="translate(100.80000000000001,67.2) rotate(0 4.2 4.2)"></use><use href="#tile" class="pink" transform="translate(109.2,67.2) rotate(0 4.2 4.2)"></use><use href="#tile" class="yellow" transform="translate(117.60000000000001,67.2) rotate(0 4.2 4.2)"></use><use href="#tile" class="pink" transform="translate(126,67.2) rotate(0 4.2 4.2)"></use><use href="#tile" class="pink" transform="translate(134.4,67.2) rotate(0 4.2 4.2)"></use><use href="#tile" class="pink" transform="translate(142.8,67.2) rotate(0 4.2 4.2)"></use><use href="#tile" class="pink" transform="translate(151.20000000000002,67.2) rotate(0 4.2 4.2)"></use><use href="#tile" class="green" transform="translate(159.6,67.2) rotate(0 4.2 4.2)"></use><use href="#tile" class="pink" transform="translate(168,67.2) rotate(0 4.2 4.2)"></use><use href="#tile" class="pink" transform="translate(176.4,67.2) rotate(0 4.2 4.2)"></use><use href="#tile" class="green" transform="translate(184.8,67.2) rotate(0 4.2 4.2)"></use><use href="#tile" class="pink" transform="translate(193.20000000000002,67.2) rotate(0 4.2 4.2)"></use><use href="#tile" class="blue" transform="translate(201.60000000000002,67.2) rotate(0 4.2 4.2)"></use><use href="#tile" class="pink" transform="translate(0,75.60000000000001) rotate(90 4.2 4.2)"></use><use href="#tile" class="pink" transform="translate(8.4,75.60000000000001) rotate(180 4.2 4.2)"></use><use href="#tile" class="blue" transform="translate(16.8,75.60000000000001) rotate(270 4.2 4.2)"></use><use href="#tile" class="blue" transform="translate(25.200000000000003,75.60000000000001) rotate(0 4.2 4.2)"></use><use href="#tile" class="pink" transform="translate(33.6,75.60000000000001) rotate(90 4.2 4.2)"></use><use href="#tile" class="blue" transform="translate(42,75.60000000000001) rotate(180 4.2 4.2)"></use><use href="#tile" class="yellow" transform="translate(50.400000000000006,75.60000000000001) rotate(270 4.2 4.2)"></use><use href="#tile" class="blue" transform="translate(58.800000000000004,75.60000000000001) rotate(0 4.2 4.2)"></use><use href="#tile" class="pink" transform="translate(67.2,75.60000000000001) rotate(90 4.2 4.2)"></use><use href="#tile" class="green" transform="translate(75.60000000000001,75.60000000000001) rotate(180 4.2 4.2)"></use><use href="#tile" class="yellow" transform="translate(84,75.60000000000001) rotate(270 4.2 4.2)"></use><use href="#tile" class="yellow" transform="translate(92.4,75.60000000000001) rotate(0 4.2 4.2)"></use><use href="#tile" class="blue" transform="translate(100.80000000000001,75.60000000000001) rotate(90 4.2 4.2)"></use><use href="#tile" class="pink" transform="translate(109.2,75.60000000000001) rotate(180 4.2 4.2)"></use><use href="#tile" class="yellow" transform="translate(117.60000000000001,75.60000000000001) rotate(270 4.2 4.2)"></use><use href="#tile" class="yellow" transform="translate(126,75.60000000000001) rotate(0 4.2 4.2)"></use><use href="#tile" class="yellow" transform="translate(134.4,75.60000000000001) rotate(90 4.2 4.2)"></use><use href="#tile" class="yellow" transform="translate(142.8,75.60000000000001) rotate(180 4.2 4.2)"></use><use href="#tile" class="yellow" transform="translate(151.20000000000002,75.60000000000001) rotate(270 4.2 4.2)"></use><use href="#tile" class="green" transform="translate(159.6,75.60000000000001) rotate(0 4.2 4.2)"></use><use href="#tile" class="yellow" transform="translate(168,75.60000000000001) rotate(90 4.2 4.2)"></use><use href="#tile" class="pink" transform="translate(176.4,75.60000000000001) rotate(180 4.2 4.2)"></use><use href="#tile" class="blue" transform="translate(184.8,75.60000000000001) rotate(270 4.2 4.2)"></use><use href="#tile" class="yellow" transform="translate(193.20000000000002,75.60000000000001) rotate(0 4.2 4.2)"></use><use href="#tile" class="pink" transform="translate(201.60000000000002,75.60000000000001) rotate(90 4.2 4.2)"></use><use href="#tile" class="pink" transform="translate(0,84) rotate(180 4.2 4.2)"></use><use href="#tile" class="green" transform="translate(8.4,84) rotate(0 4.2 4.2)"></use><use href="#tile" class="blue" transform="translate(16.8,84) rotate(180 4.2 4.2)"></use><use href="#tile" class="blue" transform="translate(25.200000000000003,84) rotate(0 4.2 4.2)"></use><use href="#tile" class="pink" transform="translate(33.6,84) rotate(180 4.2 4.2)"></use><use href="#tile" class="pink" transform="translate(42,84) rotate(0 4.2 4.2)"></use><use href="#tile" class="pink" transform="translate(50.400000000000006,84) rotate(180 4.2 4.2)"></use><use href="#tile" class="yellow" transform="translate(58.800000000000004,84) rotate(0 4.2 4.2)"></use><use href="#tile" class="pink" transform="translate(67.2,84) rotate(180 4.2 4.2)"></use><use href="#tile" class="green" transform="translate(75.60000000000001,84) rotate(0 4.2 4.2)"></use><use href="#tile" class="pink" transform="translate(84,84) rotate(180 4.2 4.2)"></use><use href="#tile" class="green" transform="translate(92.4,84) rotate(0 4.2 4.2)"></use><use href="#tile" class="blue" transform="translate(100.80000000000001,84) rotate(180 4.2 4.2)"></use><use href="#tile" class="pink" transform="translate(109.2,84) rotate(0 4.2 4.2)"></use><use href="#tile" class="green" transform="translate(117.60000000000001,84) rotate(180 4.2 4.2)"></use><use href="#tile" class="green" transform="translate(126,84) rotate(0 4.2 4.2)"></use><use href="#tile" class="green" transform="translate(134.4,84) rotate(180 4.2 4.2)"></use><use href="#tile" class="green" transform="translate(142.8,84) rotate(0 4.2 4.2)"></use><use href="#tile" class="green" transform="translate(151.20000000000002,84) rotate(180 4.2 4.2)"></use><use href="#tile" class="pink" transform="translate(159.6,84) rotate(0 4.2 4.2)"></use><use href="#tile" class="green" transform="translate(168,84) rotate(180 4.2 4.2)"></use><use href="#tile" class="yellow" transform="translate(176.4,84) rotate(0 4.2 4.2)"></use><use href="#tile" class="yellow" transform="translate(184.8,84) rotate(180 4.2 4.2)"></use><use href="#tile" class="blue" transform="translate(193.20000000000002,84) rotate(0 4.2 4.2)"></use><use href="#tile" class="green" transform="translate(201.60000000000002,84) rotate(180 4.2 4.2)"></use><use href="#tile" class="blue" transform="translate(0,92.4) rotate(270 4.2 4.2)"></use><use href="#tile" class="blue" transform="translate(8.4,92.4) rotate(180 4.2 4.2)"></use><use href="#tile" class="green" transform="translate(16.8,92.4) rotate(90 4.2 4.2)"></use><use href="#tile" class="pink" transform="translate(25.200000000000003,92.4) rotate(0 4.2 4.2)"></use><use href="#tile" class="blue" transform="translate(33.6,92.4) rotate(270 4.2 4.2)"></use><use href="#tile" class="blue" transform="translate(42,92.4) rotate(180 4.2 4.2)"></use><use href="#tile" class="yellow" transform="translate(50.400000000000006,92.4) rotate(90 4.2 4.2)"></use><use href="#tile" class="pink" transform="translate(58.800000000000004,92.4) rotate(0 4.2 4.2)"></use><use href="#tile" class="yellow" transform="translate(67.2,92.4) rotate(270 4.2 4.2)"></use><use href="#tile" class="pink" transform="translate(75.60000000000001,92.4) rotate(180 4.2 4.2)"></use><use href="#tile" class="pink" transform="translate(84,92.4) rotate(90 4.2 4.2)"></use><use href="#tile" class="yellow" transform="translate(92.4,92.4) rotate(0 4.2 4.2)"></use><use href="#tile" class="pink" transform="translate(100.80000000000001,92.4) rotate(270 4.2 4.2)"></use><use href="#tile" class="blue" transform="translate(109.2,92.4) rotate(180 4.2 4.2)"></use><use href="#tile" class="green" transform="translate(117.60000000000001,92.4) rotate(90 4.2 4.2)"></use><use href="#tile" class="pink" transform="translate(126,92.4) rotate(0 4.2 4.2)"></use><use href="#tile" class="yellow" transform="translate(134.4,92.4) rotate(270 4.2 4.2)"></use><use href="#tile" class="yellow" transform="translate(142.8,92.4) rotate(180 4.2 4.2)"></use><use href="#tile" class="blue" transform="translate(151.20000000000002,92.4) rotate(90 4.2 4.2)"></use><use href="#tile" class="blue" transform="translate(159.6,92.4) rotate(0 4.2 4.2)"></use><use href="#tile" class="pink" transform="translate(168,92.4) rotate(270 4.2 4.2)"></use><use href="#tile" class="pink" transform="translate(176.4,92.4) rotate(180 4.2 4.2)"></use><use href="#tile" class="pink" transform="translate(184.8,92.4) rotate(90 4.2 4.2)"></use><use href="#tile" class="green" transform="translate(193.20000000000002,92.4) rotate(0 4.2 4.2)"></use><use href="#tile" class="yellow" transform="translate(201.60000000000002,92.4) rotate(270 4.2 4.2)"></use><use href="#tile" class="yellow" transform="translate(0,100.80000000000001) rotate(0 4.2 4.2)"></use><use href="#tile" class="green" transform="translate(8.4,100.80000000000001) rotate(0 4.2 4.2)"></use><use href="#tile" class="pink" transform="translate(16.8,100.80000000000001) rotate(0 4.2 4.2)"></use><use href="#tile" class="blue" transform="translate(25.200000000000003,100.80000000000001) rotate(0 4.2 4.2)"></use><use href="#tile" class="blue" transform="translate(33.6,100.80000000000001) rotate(0 4.2 4.2)"></use><use href="#tile" class="green" transform="translate(42,100.80000000000001) rotate(0 4.2 4.2)"></use><use href="#tile" class="pink" transform="translate(50.400000000000006,100.80000000000001) rotate(0 4.2 4.2)"></use><use href="#tile" class="pink" transform="translate(58.800000000000004,100.80000000000001) rotate(0 4.2 4.2)"></use><use href="#tile" class="green" transform="translate(67.2,100.80000000000001) rotate(0 4.2 4.2)"></use><use href="#tile" class="blue" transform="translate(75.60000000000001,100.80000000000001) rotate(0 4.2 4.2)"></use><use href="#tile" class="blue" transform="translate(84,100.80000000000001) rotate(0 4.2 4.2)"></use><use href="#tile" class="yellow" transform="translate(92.4,100.80000000000001) rotate(0 4.2 4.2)"></use><use href="#tile" class="blue" transform="translate(100.80000000000001,100.80000000000001) rotate(0 4.2 4.2)"></use><use href="#tile" class="blue" transform="translate(109.2,100.80000000000001) rotate(0 4.2 4.2)"></use><use href="#tile" class="green" transform="translate(117.60000000000001,100.80000000000001) rotate(0 4.2 4.2)"></use><use href="#tile" class="green" transform="translate(126,100.80000000000001) rotate(0 4.2 4.2)"></use><use href="#tile" class="green" transform="translate(134.4,100.80000000000001) rotate(0 4.2 4.2)"></use><use href="#tile" class="green" transform="translate(142.8,100.80000000000001) rotate(0 4.2 4.2)"></use><use href="#tile" class="green" transform="translate(151.20000000000002,100.80000000000001) rotate(0 4.2 4.2)"></use><use href="#tile" class="yellow" transform="translate(159.6,100.80000000000001) rotate(0 4.2 4.2)"></use><use href="#tile" class="green" transform="translate(168,100.80000000000001) rotate(0 4.2 4.2)"></use><use href="#tile" class="green" transform="translate(176.4,100.80000000000001) rotate(0 4.2 4.2)"></use><use href="#tile" class="pink" transform="translate(184.8,100.80000000000001) rotate(0 4.2 4.2)"></use><use href="#tile" class="yellow" transform="translate(193.20000000000002,100.80000000000001) rotate(0 4.2 4.2)"></use><use href="#tile" class="pink" transform="translate(201.60000000000002,100.80000000000001) rotate(0 4.2 4.2)"></use><use href="#tile" class="blue" transform="translate(0,109.2) rotate(90 4.2 4.2)"></use><use href="#tile" class="blue" transform="translate(8.4,109.2) rotate(180 4.2 4.2)"></use><use href="#tile" class="yellow" transform="translate(16.8,109.2) rotate(270 4.2 4.2)"></use><use href="#tile" class="green" transform="translate(25.200000000000003,109.2) rotate(0 4.2 4.2)"></use><use href="#tile" class="blue" transform="translate(33.6,109.2) rotate(90 4.2 4.2)"></use><use href="#tile" class="yellow" transform="translate(42,109.2) rotate(180 4.2 4.2)"></use><use href="#tile" class="yellow" transform="translate(50.400000000000006,109.2) rotate(270 4.2 4.2)"></use><use href="#tile" class="green" transform="translate(58.800000000000004,109.2) rotate(0 4.2 4.2)"></use><use href="#tile" class="yellow" transform="translate(67.2,109.2) rotate(90 4.2 4.2)"></use><use href="#tile" class="blue" transform="translate(75.60000000000001,109.2) rotate(180 4.2 4.2)"></use><use href="#tile" class="green" transform="translate(84,109.2) rotate(270 4.2 4.2)"></use><use href="#tile" class="pink" transform="translate(92.4,109.2) rotate(0 4.2 4.2)"></use><use href="#tile" class="blue" transform="translate(100.80000000000001,109.2) rotate(90 4.2 4.2)"></use><use href="#tile" class="yellow" transform="translate(109.2,109.2) rotate(180 4.2 4.2)"></use><use href="#tile" class="pink" transform="translate(117.60000000000001,109.2) rotate(270 4.2 4.2)"></use><use href="#tile" class="green" transform="translate(126,109.2) rotate(0 4.2 4.2)"></use><use href="#tile" class="yellow" transform="translate(134.4,109.2) rotate(90 4.2 4.2)"></use><use href="#tile" class="blue" transform="translate(142.8,109.2) rotate(180 4.2 4.2)"></use><use href="#tile" class="blue" transform="translate(151.20000000000002,109.2) rotate(270 4.2 4.2)"></use><use href="#tile" class="pink" transform="translate(159.6,109.2) rotate(0 4.2 4.2)"></use><use href="#tile" class="blue" transform="translate(168,109.2) rotate(90 4.2 4.2)"></use><use href="#tile" class="yellow" transform="translate(176.4,109.2) rotate(180 4.2 4.2)"></use><use href="#tile" class="blue" transform="translate(184.8,109.2) rotate(270 4.2 4.2)"></use><use href="#tile" class="green" transform="translate(193.20000000000002,109.2) rotate(0 4.2 4.2)"></use><use href="#tile" class="yellow" transform="translate(201.60000000000002,109.2) rotate(90 4.2 4.2)"></use><use href="#tile" class="pink" transform="translate(0,117.60000000000001) rotate(180 4.2 4.2)"></use><use href="#tile" class="green" transform="translate(8.4,117.60000000000001) rotate(0 4.2 4.2)"></use><use href="#tile" class="pink" transform="translate(16.8,117.60000000000001) rotate(180 4.2 4.2)"></use><use href="#tile" class="yellow" transform="translate(25.200000000000003,117.60000000000001) rotate(0 4.2 4.2)"></use><use href="#tile" class="yellow" transform="translate(33.6,117.60000000000001) rotate(180 4.2 4.2)"></use><use href="#tile" class="green" transform="translate(42,117.60000000000001) rotate(0 4.2 4.2)"></use><use href="#tile" class="pink" transform="translate(50.400000000000006,117.60000000000001) rotate(180 4.2 4.2)"></use><use href="#tile" class="yellow" transform="translate(58.800000000000004,117.60000000000001) rotate(0 4.2 4.2)"></use><use href="#tile" class="yellow" transform="translate(67.2,117.60000000000001) rotate(180 4.2 4.2)"></use><use href="#tile" class="yellow" transform="translate(75.60000000000001,117.60000000000001) rotate(0 4.2 4.2)"></use><use href="#tile" class="pink" transform="translate(84,117.60000000000001) rotate(180 4.2 4.2)"></use><use href="#tile" class="blue" transform="translate(92.4,117.60000000000001) rotate(0 4.2 4.2)"></use><use href="#tile" class="pink" transform="translate(100.80000000000001,117.60000000000001) rotate(180 4.2 4.2)"></use><use href="#tile" class="green" transform="translate(109.2,117.60000000000001) rotate(0 4.2 4.2)"></use><use href="#tile" class="yellow" transform="translate(117.60000000000001,117.60000000000001) rotate(180 4.2 4.2)"></use><use href="#tile" class="blue" transform="translate(126,117.60000000000001) rotate(0 4.2 4.2)"></use><use href="#tile" class="blue" transform="translate(134.4,117.60000000000001) rotate(180 4.2 4.2)"></use><use href="#tile" class="blue" transform="translate(142.8,117.60000000000001) rotate(0 4.2 4.2)"></use><use href="#tile" class="green" transform="translate(151.20000000000002,117.60000000000001) rotate(180 4.2 4.2)"></use><use href="#tile" class="blue" transform="translate(159.6,117.60000000000001) rotate(0 4.2 4.2)"></use><use href="#tile" class="green" transform="translate(168,117.60000000000001) rotate(180 4.2 4.2)"></use><use href="#tile" class="green" transform="translate(176.4,117.60000000000001) rotate(0 4.2 4.2)"></use><use href="#tile" class="pink" transform="translate(184.8,117.60000000000001) rotate(180 4.2 4.2)"></use><use href="#tile" class="pink" transform="translate(193.20000000000002,117.60000000000001) rotate(0 4.2 4.2)"></use><use href="#tile" class="yellow" transform="translate(201.60000000000002,117.60000000000001) rotate(180 4.2 4.2)"></use><use href="#tile" class="pink" transform="translate(0,126) rotate(270 4.2 4.2)"></use><use href="#tile" class="green" transform="translate(8.4,126) rotate(180 4.2 4.2)"></use><use href="#tile" class="pink" transform="translate(16.8,126) rotate(90 4.2 4.2)"></use><use href="#tile" class="yellow" transform="translate(25.200000000000003,126) rotate(0 4.2 4.2)"></use><use href="#tile" class="pink" transform="translate(33.6,126) rotate(270 4.2 4.2)"></use><use href="#tile" class="pink" transform="translate(42,126) rotate(180 4.2 4.2)"></use><use href="#tile" class="blue" transform="translate(50.400000000000006,126) rotate(90 4.2 4.2)"></use><use href="#tile" class="green" transform="translate(58.800000000000004,126) rotate(0 4.2 4.2)"></use><use href="#tile" class="blue" transform="translate(67.2,126) rotate(270 4.2 4.2)"></use><use href="#tile" class="yellow" transform="translate(75.60000000000001,126) rotate(180 4.2 4.2)"></use><use href="#tile" class="blue" transform="translate(84,126) rotate(90 4.2 4.2)"></use><use href="#tile" class="green" transform="translate(92.4,126) rotate(0 4.2 4.2)"></use><use href="#tile" class="pink" transform="translate(100.80000000000001,126) rotate(270 4.2 4.2)"></use><use href="#tile" class="blue" transform="translate(109.2,126) rotate(180 4.2 4.2)"></use><use href="#tile" class="yellow" transform="translate(117.60000000000001,126) rotate(90 4.2 4.2)"></use><use href="#tile" class="yellow" transform="translate(126,126) rotate(0 4.2 4.2)"></use><use href="#tile" class="yellow" transform="translate(134.4,126) rotate(270 4.2 4.2)"></use><use href="#tile" class="green" transform="translate(142.8,126) rotate(180 4.2 4.2)"></use><use href="#tile" class="yellow" transform="translate(151.20000000000002,126) rotate(90 4.2 4.2)"></use><use href="#tile" class="green" transform="translate(159.6,126) rotate(0 4.2 4.2)"></use><use href="#tile" class="yellow" transform="translate(168,126) rotate(270 4.2 4.2)"></use><use href="#tile" class="blue" transform="translate(176.4,126) rotate(180 4.2 4.2)"></use><use href="#tile" class="pink" transform="translate(184.8,126) rotate(90 4.2 4.2)"></use><use href="#tile" class="yellow" transform="translate(193.20000000000002,126) rotate(0 4.2 4.2)"></use><use href="#tile" class="pink" transform="translate(201.60000000000002,126) rotate(270 4.2 4.2)"></use><use href="#tile" class="yellow" transform="translate(0,134.4) rotate(0 4.2 4.2)"></use><use href="#tile" class="pink" transform="translate(8.4,134.4) rotate(0 4.2 4.2)"></use><use href="#tile" class="yellow" transform="translate(16.8,134.4) rotate(0 4.2 4.2)"></use><use href="#tile" class="pink" transform="translate(25.200000000000003,134.4) rotate(0 4.2 4.2)"></use><use href="#tile" class="green" transform="translate(33.6,134.4) rotate(0 4.2 4.2)"></use><use href="#tile" class="yellow" transform="translate(42,134.4) rotate(0 4.2 4.2)"></use><use href="#tile" class="pink" transform="translate(50.400000000000006,134.4) rotate(0 4.2 4.2)"></use><use href="#tile" class="yellow" transform="translate(58.800000000000004,134.4) rotate(0 4.2 4.2)"></use><use href="#tile" class="pink" transform="translate(67.2,134.4) rotate(0 4.2 4.2)"></use><use href="#tile" class="blue" transform="translate(75.60000000000001,134.4) rotate(0 4.2 4.2)"></use><use href="#tile" class="blue" transform="translate(84,134.4) rotate(0 4.2 4.2)"></use><use href="#tile" class="blue" transform="translate(92.4,134.4) rotate(0 4.2 4.2)"></use><use href="#tile" class="green" transform="translate(100.80000000000001,134.4) rotate(0 4.2 4.2)"></use><use href="#tile" class="yellow" transform="translate(109.2,134.4) rotate(0 4.2 4.2)"></use><use href="#tile" class="yellow" transform="translate(117.60000000000001,134.4) rotate(0 4.2 4.2)"></use><use href="#tile" class="blue" transform="translate(126,134.4) rotate(0 4.2 4.2)"></use><use href="#tile" class="blue" transform="translate(134.4,134.4) rotate(0 4.2 4.2)"></use><use href="#tile" class="yellow" transform="translate(142.8,134.4) rotate(0 4.2 4.2)"></use><use href="#tile" class="pink" transform="translate(151.20000000000002,134.4) rotate(0 4.2 4.2)"></use><use href="#tile" class="pink" transform="translate(159.6,134.4) rotate(0 4.2 4.2)"></use><use href="#tile" class="yellow" transform="translate(168,134.4) rotate(0 4.2 4.2)"></use><use href="#tile" class="pink" transform="translate(176.4,134.4) rotate(0 4.2 4.2)"></use><use href="#tile" class="green" transform="translate(184.8,134.4) rotate(0 4.2 4.2)"></use><use href="#tile" class="blue" transform="translate(193.20000000000002,134.4) rotate(0 4.2 4.2)"></use><use href="#tile" class="yellow" transform="translate(201.60000000000002,134.4) rotate(0 4.2 4.2)"></use><use href="#tile" class="green" transform="translate(0,142.8) rotate(90 4.2 4.2)"></use><use href="#tile" class="blue" transform="translate(8.4,142.8) rotate(180 4.2 4.2)"></use><use href="#tile" class="yellow" transform="translate(16.8,142.8) rotate(270 4.2 4.2)"></use><use href="#tile" class="green" transform="translate(25.200000000000003,142.8) rotate(0 4.2 4.2)"></use><use href="#tile" class="yellow" transform="translate(33.6,142.8) rotate(90 4.2 4.2)"></use><use href="#tile" class="blue" transform="translate(42,142.8) rotate(180 4.2 4.2)"></use><use href="#tile" class="yellow" transform="translate(50.400000000000006,142.8) rotate(270 4.2 4.2)"></use><use href="#tile" class="pink" transform="translate(58.800000000000004,142.8) rotate(0 4.2 4.2)"></use><use href="#tile" class="blue" transform="translate(67.2,142.8) rotate(90 4.2 4.2)"></use><use href="#tile" class="yellow" transform="translate(75.60000000000001,142.8) rotate(180 4.2 4.2)"></use><use href="#tile" class="blue" transform="translate(84,142.8) rotate(270 4.2 4.2)"></use><use href="#tile" class="pink" transform="translate(92.4,142.8) rotate(0 4.2 4.2)"></use><use href="#tile" class="yellow" transform="translate(100.80000000000001,142.8) rotate(90 4.2 4.2)"></use><use href="#tile" class="green" transform="translate(109.2,142.8) rotate(180 4.2 4.2)"></use><use href="#tile" class="pink" transform="translate(117.60000000000001,142.8) rotate(270 4.2 4.2)"></use><use href="#tile" class="pink" transform="translate(126,142.8) rotate(0 4.2 4.2)"></use><use href="#tile" class="pink" transform="translate(134.4,142.8) rotate(90 4.2 4.2)"></use><use href="#tile" class="blue" transform="translate(142.8,142.8) rotate(180 4.2 4.2)"></use><use href="#tile" class="blue" transform="translate(151.20000000000002,142.8) rotate(270 4.2 4.2)"></use><use href="#tile" class="pink" transform="translate(159.6,142.8) rotate(0 4.2 4.2)"></use><use href="#tile" class="green" transform="translate(168,142.8) rotate(90 4.2 4.2)"></use><use href="#tile" class="blue" transform="translate(176.4,142.8) rotate(180 4.2 4.2)"></use><use href="#tile" class="blue" transform="translate(184.8,142.8) rotate(270 4.2 4.2)"></use><use href="#tile" class="yellow" transform="translate(193.20000000000002,142.8) rotate(0 4.2 4.2)"></use><use href="#tile" class="green" transform="translate(201.60000000000002,142.8) rotate(90 4.2 4.2)"></use><use href="#tile" class="yellow" transform="translate(0,151.20000000000002) rotate(180 4.2 4.2)"></use><use href="#tile" class="green" transform="translate(8.4,151.20000000000002) rotate(0 4.2 4.2)"></use><use href="#tile" class="blue" transform="translate(16.8,151.20000000000002) rotate(180 4.2 4.2)"></use><use href="#tile" class="yellow" transform="translate(25.200000000000003,151.20000000000002) rotate(0 4.2 4.2)"></use><use href="#tile" class="yellow" transform="translate(33.6,151.20000000000002) rotate(180 4.2 4.2)"></use><use href="#tile" class="pink" transform="translate(42,151.20000000000002) rotate(0 4.2 4.2)"></use><use href="#tile" class="pink" transform="translate(50.400000000000006,151.20000000000002) rotate(180 4.2 4.2)"></use><use href="#tile" class="yellow" transform="translate(58.800000000000004,151.20000000000002) rotate(0 4.2 4.2)"></use><use href="#tile" class="pink" transform="translate(67.2,151.20000000000002) rotate(180 4.2 4.2)"></use><use href="#tile" class="blue" transform="translate(75.60000000000001,151.20000000000002) rotate(0 4.2 4.2)"></use><use href="#tile" class="yellow" transform="translate(84,151.20000000000002) rotate(180 4.2 4.2)"></use><use href="#tile" class="green" transform="translate(92.4,151.20000000000002) rotate(0 4.2 4.2)"></use><use href="#tile" class="green" transform="translate(100.80000000000001,151.20000000000002) rotate(180 4.2 4.2)"></use><use href="#tile" class="pink" transform="translate(109.2,151.20000000000002) rotate(0 4.2 4.2)"></use><use href="#tile" class="green" transform="translate(117.60000000000001,151.20000000000002) rotate(180 4.2 4.2)"></use><use href="#tile" class="green" transform="translate(126,151.20000000000002) rotate(0 4.2 4.2)"></use><use href="#tile" class="blue" transform="translate(134.4,151.20000000000002) rotate(180 4.2 4.2)"></use><use href="#tile" class="yellow" transform="translate(142.8,151.20000000000002) rotate(0 4.2 4.2)"></use><use href="#tile" class="blue" transform="translate(151.20000000000002,151.20000000000002) rotate(180 4.2 4.2)"></use><use href="#tile" class="yellow" transform="translate(159.6,151.20000000000002) rotate(0 4.2 4.2)"></use><use href="#tile" class="pink" transform="translate(168,151.20000000000002) rotate(180 4.2 4.2)"></use><use href="#tile" class="blue" transform="translate(176.4,151.20000000000002) rotate(0 4.2 4.2)"></use><use href="#tile" class="pink" transform="translate(184.8,151.20000000000002) rotate(180 4.2 4.2)"></use><use href="#tile" class="green" transform="translate(193.20000000000002,151.20000000000002) rotate(0 4.2 4.2)"></use><use href="#tile" class="yellow" transform="translate(201.60000000000002,151.20000000000002) rotate(180 4.2 4.2)"></use><use href="#tile" class="pink" transform="translate(0,159.6) rotate(270 4.2 4.2)"></use><use href="#tile" class="blue" transform="translate(8.4,159.6) rotate(180 4.2 4.2)"></use><use href="#tile" class="blue" transform="translate(16.8,159.6) rotate(90 4.2 4.2)"></use><use href="#tile" class="blue" transform="translate(25.200000000000003,159.6) rotate(0 4.2 4.2)"></use><use href="#tile" class="pink" transform="translate(33.6,159.6) rotate(270 4.2 4.2)"></use><use href="#tile" class="green" transform="translate(42,159.6) rotate(180 4.2 4.2)"></use><use href="#tile" class="yellow" transform="translate(50.400000000000006,159.6) rotate(90 4.2 4.2)"></use><use href="#tile" class="pink" transform="translate(58.800000000000004,159.6) rotate(0 4.2 4.2)"></use><use href="#tile" class="yellow" transform="translate(67.2,159.6) rotate(270 4.2 4.2)"></use><use href="#tile" class="blue" transform="translate(75.60000000000001,159.6) rotate(180 4.2 4.2)"></use><use href="#tile" class="pink" transform="translate(84,159.6) rotate(90 4.2 4.2)"></use><use href="#tile" class="green" transform="translate(92.4,159.6) rotate(0 4.2 4.2)"></use><use href="#tile" class="yellow" transform="translate(100.80000000000001,159.6) rotate(270 4.2 4.2)"></use><use href="#tile" class="green" transform="translate(109.2,159.6) rotate(180 4.2 4.2)"></use><use href="#tile" class="green" transform="translate(117.60000000000001,159.6) rotate(90 4.2 4.2)"></use><use href="#tile" class="green" transform="translate(126,159.6) rotate(0 4.2 4.2)"></use><use href="#tile" class="blue" transform="translate(134.4,159.6) rotate(270 4.2 4.2)"></use><use href="#tile" class="blue" transform="translate(142.8,159.6) rotate(180 4.2 4.2)"></use><use href="#tile" class="blue" transform="translate(151.20000000000002,159.6) rotate(90 4.2 4.2)"></use><use href="#tile" class="pink" transform="translate(159.6,159.6) rotate(0 4.2 4.2)"></use><use href="#tile" class="pink" transform="translate(168,159.6) rotate(270 4.2 4.2)"></use><use href="#tile" class="green" transform="translate(176.4,159.6) rotate(180 4.2 4.2)"></use><use href="#tile" class="green" transform="translate(184.8,159.6) rotate(90 4.2 4.2)"></use><use href="#tile" class="blue" transform="translate(193.20000000000002,159.6) rotate(0 4.2 4.2)"></use><use href="#tile" class="green" transform="translate(201.60000000000002,159.6) rotate(270 4.2 4.2)"></use><use href="#tile" class="yellow" transform="translate(0,168) rotate(0 4.2 4.2)"></use><use href="#tile" class="blue" transform="translate(8.4,168) rotate(0 4.2 4.2)"></use><use href="#tile" class="blue" transform="translate(16.8,168) rotate(0 4.2 4.2)"></use><use href="#tile" class="green" transform="translate(25.200000000000003,168) rotate(0 4.2 4.2)"></use><use href="#tile" class="green" transform="translate(33.6,168) rotate(0 4.2 4.2)"></use><use href="#tile" class="yellow" transform="translate(42,168) rotate(0 4.2 4.2)"></use><use href="#tile" class="pink" transform="translate(50.400000000000006,168) rotate(0 4.2 4.2)"></use><use href="#tile" class="pink" transform="translate(58.800000000000004,168) rotate(0 4.2 4.2)"></use><use href="#tile" class="blue" transform="translate(67.2,168) rotate(0 4.2 4.2)"></use><use href="#tile" class="green" transform="translate(75.60000000000001,168) rotate(0 4.2 4.2)"></use><use href="#tile" class="pink" transform="translate(84,168) rotate(0 4.2 4.2)"></use><use href="#tile" class="pink" transform="translate(92.4,168) rotate(0 4.2 4.2)"></use><use href="#tile" class="pink" transform="translate(100.80000000000001,168) rotate(0 4.2 4.2)"></use><use href="#tile" class="blue" transform="translate(109.2,168) rotate(0 4.2 4.2)"></use><use href="#tile" class="green" transform="translate(117.60000000000001,168) rotate(0 4.2 4.2)"></use><use href="#tile" class="blue" transform="translate(126,168) rotate(0 4.2 4.2)"></use><use href="#tile" class="pink" transform="translate(134.4,168) rotate(0 4.2 4.2)"></use><use href="#tile" class="pink" transform="translate(142.8,168) rotate(0 4.2 4.2)"></use><use href="#tile" class="green" transform="translate(151.20000000000002,168) rotate(0 4.2 4.2)"></use><use href="#tile" class="blue" transform="translate(159.6,168) rotate(0 4.2 4.2)"></use><use href="#tile" class="pink" transform="translate(168,168) rotate(0 4.2 4.2)"></use><use href="#tile" class="pink" transform="translate(176.4,168) rotate(0 4.2 4.2)"></use><use href="#tile" class="blue" transform="translate(184.8,168) rotate(0 4.2 4.2)"></use><use href="#tile" class="blue" transform="translate(193.20000000000002,168) rotate(0 4.2 4.2)"></use><use href="#tile" class="yellow" transform="translate(201.60000000000002,168) rotate(0 4.2 4.2)"></use><use href="#tile" class="pink" transform="translate(0,176.4) rotate(90 4.2 4.2)"></use><use href="#tile" class="yellow" transform="translate(8.4,176.4) rotate(180 4.2 4.2)"></use><use href="#tile" class="yellow" transform="translate(16.8,176.4) rotate(270 4.2 4.2)"></use><use href="#tile" class="green" transform="translate(25.200000000000003,176.4) rotate(0 4.2 4.2)"></use><use href="#tile" class="green" transform="translate(33.6,176.4) rotate(90 4.2 4.2)"></use><use href="#tile" class="blue" transform="translate(42,176.4) rotate(180 4.2 4.2)"></use><use href="#tile" class="green" transform="translate(50.400000000000006,176.4) rotate(270 4.2 4.2)"></use><use href="#tile" class="green" transform="translate(58.800000000000004,176.4) rotate(0 4.2 4.2)"></use><use href="#tile" class="yellow" transform="translate(67.2,176.4) rotate(90 4.2 4.2)"></use><use href="#tile" class="green" transform="translate(75.60000000000001,176.4) rotate(180 4.2 4.2)"></use><use href="#tile" class="pink" transform="translate(84,176.4) rotate(270 4.2 4.2)"></use><use href="#tile" class="yellow" transform="translate(92.4,176.4) rotate(0 4.2 4.2)"></use><use href="#tile" class="green" transform="translate(100.80000000000001,176.4) rotate(90 4.2 4.2)"></use><use href="#tile" class="pink" transform="translate(109.2,176.4) rotate(180 4.2 4.2)"></use><use href="#tile" class="yellow" transform="translate(117.60000000000001,176.4) rotate(270 4.2 4.2)"></use><use href="#tile" class="blue" transform="translate(126,176.4) rotate(0 4.2 4.2)"></use><use href="#tile" class="yellow" transform="translate(134.4,176.4) rotate(90 4.2 4.2)"></use><use href="#tile" class="pink" transform="translate(142.8,176.4) rotate(180 4.2 4.2)"></use><use href="#tile" class="blue" transform="translate(151.20000000000002,176.4) rotate(270 4.2 4.2)"></use><use href="#tile" class="blue" transform="translate(159.6,176.4) rotate(0 4.2 4.2)"></use><use href="#tile" class="green" transform="translate(168,176.4) rotate(90 4.2 4.2)"></use><use href="#tile" class="yellow" transform="translate(176.4,176.4) rotate(180 4.2 4.2)"></use><use href="#tile" class="yellow" transform="translate(184.8,176.4) rotate(270 4.2 4.2)"></use><use href="#tile" class="yellow" transform="translate(193.20000000000002,176.4) rotate(0 4.2 4.2)"></use><use href="#tile" class="pink" transform="translate(201.60000000000002,176.4) rotate(90 4.2 4.2)"></use><use href="#tile" class="blue" transform="translate(0,184.8) rotate(180 4.2 4.2)"></use><use href="#tile" class="blue" transform="translate(8.4,184.8) rotate(0 4.2 4.2)"></use><use href="#tile" class="green" transform="translate(16.8,184.8) rotate(180 4.2 4.2)"></use><use href="#tile" class="yellow" transform="translate(25.200000000000003,184.8) rotate(0 4.2 4.2)"></use><use href="#tile" class="blue" transform="translate(33.6,184.8) rotate(180 4.2 4.2)"></use><use href="#tile" class="blue" transform="translate(42,184.8) rotate(0 4.2 4.2)"></use><use href="#tile" class="pink" transform="translate(50.400000000000006,184.8) rotate(180 4.2 4.2)"></use><use href="#tile" class="pink" transform="translate(58.800000000000004,184.8) rotate(0 4.2 4.2)"></use><use href="#tile" class="yellow" transform="translate(67.2,184.8) rotate(180 4.2 4.2)"></use><use href="#tile" class="green" transform="translate(75.60000000000001,184.8) rotate(0 4.2 4.2)"></use><use href="#tile" class="green" transform="translate(84,184.8) rotate(180 4.2 4.2)"></use><use href="#tile" class="blue" transform="translate(92.4,184.8) rotate(0 4.2 4.2)"></use><use href="#tile" class="pink" transform="translate(100.80000000000001,184.8) rotate(180 4.2 4.2)"></use><use href="#tile" class="pink" transform="translate(109.2,184.8) rotate(0 4.2 4.2)"></use><use href="#tile" class="blue" transform="translate(117.60000000000001,184.8) rotate(180 4.2 4.2)"></use><use href="#tile" class="green" transform="translate(126,184.8) rotate(0 4.2 4.2)"></use><use href="#tile" class="pink" transform="translate(134.4,184.8) rotate(180 4.2 4.2)"></use><use href="#tile" class="green" transform="translate(142.8,184.8) rotate(0 4.2 4.2)"></use><use href="#tile" class="green" transform="translate(151.20000000000002,184.8) rotate(180 4.2 4.2)"></use><use href="#tile" class="pink" transform="translate(159.6,184.8) rotate(0 4.2 4.2)"></use><use href="#tile" class="pink" transform="translate(168,184.8) rotate(180 4.2 4.2)"></use><use href="#tile" class="blue" transform="translate(176.4,184.8) rotate(0 4.2 4.2)"></use><use href="#tile" class="pink" transform="translate(184.8,184.8) rotate(180 4.2 4.2)"></use><use href="#tile" class="pink" transform="translate(193.20000000000002,184.8) rotate(0 4.2 4.2)"></use><use href="#tile" class="yellow" transform="translate(201.60000000000002,184.8) rotate(180 4.2 4.2)"></use><use href="#tile" class="green" transform="translate(0,193.20000000000002) rotate(270 4.2 4.2)"></use><use href="#tile" class="pink" transform="translate(8.4,193.20000000000002) rotate(180 4.2 4.2)"></use><use href="#tile" class="green" transform="translate(16.8,193.20000000000002) rotate(90 4.2 4.2)"></use><use href="#tile" class="pink" transform="translate(25.200000000000003,193.20000000000002) rotate(0 4.2 4.2)"></use><use href="#tile" class="yellow" transform="translate(33.6,193.20000000000002) rotate(270 4.2 4.2)"></use><use href="#tile" class="green" transform="translate(42,193.20000000000002) rotate(180 4.2 4.2)"></use><use href="#tile" class="pink" transform="translate(50.400000000000006,193.20000000000002) rotate(90 4.2 4.2)"></use><use href="#tile" class="yellow" transform="translate(58.800000000000004,193.20000000000002) rotate(0 4.2 4.2)"></use><use href="#tile" class="blue" transform="translate(67.2,193.20000000000002) rotate(270 4.2 4.2)"></use><use href="#tile" class="yellow" transform="translate(75.60000000000001,193.20000000000002) rotate(180 4.2 4.2)"></use><use href="#tile" class="yellow" transform="translate(84,193.20000000000002) rotate(90 4.2 4.2)"></use><use href="#tile" class="yellow" transform="translate(92.4,193.20000000000002) rotate(0 4.2 4.2)"></use><use href="#tile" class="pink" transform="translate(100.80000000000001,193.20000000000002) rotate(270 4.2 4.2)"></use><use href="#tile" class="yellow" transform="translate(109.2,193.20000000000002) rotate(180 4.2 4.2)"></use><use href="#tile" class="pink" transform="translate(117.60000000000001,193.20000000000002) rotate(90 4.2 4.2)"></use><use href="#tile" class="pink" transform="translate(126,193.20000000000002) rotate(0 4.2 4.2)"></use><use href="#tile" class="yellow" transform="translate(134.4,193.20000000000002) rotate(270 4.2 4.2)"></use><use href="#tile" class="pink" transform="translate(142.8,193.20000000000002) rotate(180 4.2 4.2)"></use><use href="#tile" class="green" transform="translate(151.20000000000002,193.20000000000002) rotate(90 4.2 4.2)"></use><use href="#tile" class="yellow" transform="translate(159.6,193.20000000000002) rotate(0 4.2 4.2)"></use><use href="#tile" class="yellow" transform="translate(168,193.20000000000002) rotate(270 4.2 4.2)"></use><use href="#tile" class="pink" transform="translate(176.4,193.20000000000002) rotate(180 4.2 4.2)"></use><use href="#tile" class="green" transform="translate(184.8,193.20000000000002) rotate(90 4.2 4.2)"></use><use href="#tile" class="blue" transform="translate(193.20000000000002,193.20000000000002) rotate(0 4.2 4.2)"></use><use href="#tile" class="pink" transform="translate(201.60000000000002,193.20000000000002) rotate(270 4.2 4.2)"></use><use href="#tile" class="green" transform="translate(0,201.60000000000002) rotate(0 4.2 4.2)"></use><use href="#tile" class="pink" transform="translate(8.4,201.60000000000002) rotate(0 4.2 4.2)"></use><use href="#tile" class="blue" transform="translate(16.8,201.60000000000002) rotate(0 4.2 4.2)"></use><use href="#tile" class="yellow" transform="translate(25.200000000000003,201.60000000000002) rotate(0 4.2 4.2)"></use><use href="#tile" class="blue" transform="translate(33.6,201.60000000000002) rotate(0 4.2 4.2)"></use><use href="#tile" class="green" transform="translate(42,201.60000000000002) rotate(0 4.2 4.2)"></use><use href="#tile" class="pink" transform="translate(50.400000000000006,201.60000000000002) rotate(0 4.2 4.2)"></use><use href="#tile" class="pink" transform="translate(58.800000000000004,201.60000000000002) rotate(0 4.2 4.2)"></use><use href="#tile" class="yellow" transform="translate(67.2,201.60000000000002) rotate(0 4.2 4.2)"></use><use href="#tile" class="green" transform="translate(75.60000000000001,201.60000000000002) rotate(0 4.2 4.2)"></use><use href="#tile" class="pink" transform="translate(84,201.60000000000002) rotate(0 4.2 4.2)"></use><use href="#tile" class="green" transform="translate(92.4,201.60000000000002) rotate(0 4.2 4.2)"></use><use href="#tile" class="yellow" transform="translate(100.80000000000001,201.60000000000002) rotate(0 4.2 4.2)"></use><use href="#tile" class="pink" transform="translate(109.2,201.60000000000002) rotate(0 4.2 4.2)"></use><use href="#tile" class="green" transform="translate(117.60000000000001,201.60000000000002) rotate(0 4.2 4.2)"></use><use href="#tile" class="pink" transform="translate(126,201.60000000000002) rotate(0 4.2 4.2)"></use><use href="#tile" class="yellow" transform="translate(134.4,201.60000000000002) rotate(0 4.2 4.2)"></use><use href="#tile" class="green" transform="translate(142.8,201.60000000000002) rotate(0 4.2 4.2)"></use><use href="#tile" class="pink" transform="translate(151.20000000000002,201.60000000000002) rotate(0 4.2 4.2)"></use><use href="#tile" class="yellow" transform="translate(159.6,201.60000000000002) rotate(0 4.2 4.2)"></use><use href="#tile" class="blue" transform="translate(168,201.60000000000002) rotate(0 4.2 4.2)"></use><use href="#tile" class="green" transform="translate(176.4,201.60000000000002) rotate(0 4.2 4.2)"></use><use href="#tile" class="green" transform="translate(184.8,201.60000000000002) rotate(0 4.2 4.2)"></use><use href="#tile" class="blue" transform="translate(193.20000000000002,201.60000000000002) rotate(0 4.2 4.2)"></use><use href="#tile" class="pink" transform="translate(201.60000000000002,201.60000000000002) rotate(0 4.2 4.2)"></use><use href="#tile" class="pink" transform="translate(0,210) rotate(90 4.2 4.2)"></use><use href="#tile" class="blue" transform="translate(8.4,210) rotate(180 4.2 4.2)"></use><use href="#tile" class="blue" transform="translate(16.8,210) rotate(270 4.2 4.2)"></use><use href="#tile" class="green" transform="translate(25.200000000000003,210) rotate(0 4.2 4.2)"></use><use href="#tile" class="yellow" transform="translate(33.6,210) rotate(90 4.2 4.2)"></use><use href="#tile" class="green" transform="translate(42,210) rotate(180 4.2 4.2)"></use><use href="#tile" class="blue" transform="translate(50.400000000000006,210) rotate(270 4.2 4.2)"></use><use href="#tile" class="blue" transform="translate(58.800000000000004,210) rotate(0 4.2 4.2)"></use><use href="#tile" class="blue" transform="translate(67.2,210) rotate(90 4.2 4.2)"></use><use href="#tile" class="green" transform="translate(75.60000000000001,210) rotate(180 4.2 4.2)"></use><use href="#tile" class="pink" transform="translate(84,210) rotate(270 4.2 4.2)"></use><use href="#tile" class="pink" transform="translate(92.4,210) rotate(0 4.2 4.2)"></use><use href="#tile" class="pink" transform="translate(100.80000000000001,210) rotate(90 4.2 4.2)"></use><use href="#tile" class="green" transform="translate(109.2,210) rotate(180 4.2 4.2)"></use><use href="#tile" class="blue" transform="translate(117.60000000000001,210) rotate(270 4.2 4.2)"></use><use href="#tile" class="green" transform="translate(126,210) rotate(0 4.2 4.2)"></use><use href="#tile" class="blue" transform="translate(134.4,210) rotate(90 4.2 4.2)"></use><use href="#tile" class="yellow" transform="translate(142.8,210) rotate(180 4.2 4.2)"></use><use href="#tile" class="pink" transform="translate(151.20000000000002,210) rotate(270 4.2 4.2)"></use><use href="#tile" class="blue" transform="translate(159.6,210) rotate(0 4.2 4.2)"></use><use href="#tile" class="pink" transform="translate(168,210) rotate(90 4.2 4.2)"></use><use href="#tile" class="blue" transform="translate(176.4,210) rotate(180 4.2 4.2)"></use><use href="#tile" class="green" transform="translate(184.8,210) rotate(270 4.2 4.2)"></use><use href="#tile" class="blue" transform="translate(193.20000000000002,210) rotate(0 4.2 4.2)"></use><use href="#tile" class="yellow" transform="translate(201.60000000000002,210) rotate(90 4.2 4.2)"></use><use href="#tile" class="green" transform="translate(0,218.4) rotate(180 4.2 4.2)"></use><use href="#tile" class="green" transform="translate(8.4,218.4) rotate(0 4.2 4.2)"></use><use href="#tile" class="yellow" transform="translate(16.8,218.4) rotate(180 4.2 4.2)"></use><use href="#tile" class="yellow" transform="translate(25.200000000000003,218.4) rotate(0 4.2 4.2)"></use><use href="#tile" class="green" transform="translate(33.6,218.4) rotate(180 4.2 4.2)"></use><use href="#tile" class="pink" transform="translate(42,218.4) rotate(0 4.2 4.2)"></use><use href="#tile" class="green" transform="translate(50.400000000000006,218.4) rotate(180 4.2 4.2)"></use><use href="#tile" class="yellow" transform="translate(58.800000000000004,218.4) rotate(0 4.2 4.2)"></use><use href="#tile" class="blue" transform="translate(67.2,218.4) rotate(180 4.2 4.2)"></use><use href="#tile" class="green" transform="translate(75.60000000000001,218.4) rotate(0 4.2 4.2)"></use><use href="#tile" class="green" transform="translate(84,218.4) rotate(180 4.2 4.2)"></use><use href="#tile" class="green" transform="translate(92.4,218.4) rotate(0 4.2 4.2)"></use><use href="#tile" class="blue" transform="translate(100.80000000000001,218.4) rotate(180 4.2 4.2)"></use><use href="#tile" class="blue" transform="translate(109.2,218.4) rotate(0 4.2 4.2)"></use><use href="#tile" class="blue" transform="translate(117.60000000000001,218.4) rotate(180 4.2 4.2)"></use><use href="#tile" class="pink" transform="translate(126,218.4) rotate(0 4.2 4.2)"></use><use href="#tile" class="blue" transform="translate(134.4,218.4) rotate(180 4.2 4.2)"></use><use href="#tile" class="blue" transform="translate(142.8,218.4) rotate(0 4.2 4.2)"></use><use href="#tile" class="yellow" transform="translate(151.20000000000002,218.4) rotate(180 4.2 4.2)"></use><use href="#tile" class="green" transform="translate(159.6,218.4) rotate(0 4.2 4.2)"></use><use href="#tile" class="green" transform="translate(168,218.4) rotate(180 4.2 4.2)"></use><use href="#tile" class="blue" transform="translate(176.4,218.4) rotate(0 4.2 4.2)"></use><use href="#tile" class="pink" transform="translate(184.8,218.4) rotate(180 4.2 4.2)"></use><use href="#tile" class="green" transform="translate(193.20000000000002,218.4) rotate(0 4.2 4.2)"></use><use href="#tile" class="pink" transform="translate(201.60000000000002,218.4) rotate(180 4.2 4.2)"></use><use href="#tile" class="green" transform="translate(0,226.8) rotate(270 4.2 4.2)"></use><use href="#tile" class="blue" transform="translate(8.4,226.8) rotate(180 4.2 4.2)"></use><use href="#tile" class="yellow" transform="translate(16.8,226.8) rotate(90 4.2 4.2)"></use><use href="#tile" class="green" transform="translate(25.200000000000003,226.8) rotate(0 4.2 4.2)"></use><use href="#tile" class="green" transform="translate(33.6,226.8) rotate(270 4.2 4.2)"></use><use href="#tile" class="yellow" transform="translate(42,226.8) rotate(180 4.2 4.2)"></use><use href="#tile" class="yellow" transform="translate(50.400000000000006,226.8) rotate(90 4.2 4.2)"></use><use href="#tile" class="green" transform="translate(58.800000000000004,226.8) rotate(0 4.2 4.2)"></use><use href="#tile" class="yellow" transform="translate(67.2,226.8) rotate(270 4.2 4.2)"></use><use href="#tile" class="yellow" transform="translate(75.60000000000001,226.8) rotate(180 4.2 4.2)"></use><use href="#tile" class="blue" transform="translate(84,226.8) rotate(90 4.2 4.2)"></use><use href="#tile" class="green" transform="translate(92.4,226.8) rotate(0 4.2 4.2)"></use><use href="#tile" class="pink" transform="translate(100.80000000000001,226.8) rotate(270 4.2 4.2)"></use><use href="#tile" class="blue" transform="translate(109.2,226.8) rotate(180 4.2 4.2)"></use><use href="#tile" class="pink" transform="translate(117.60000000000001,226.8) rotate(90 4.2 4.2)"></use><use href="#tile" class="blue" transform="translate(126,226.8) rotate(0 4.2 4.2)"></use><use href="#tile" class="pink" transform="translate(134.4,226.8) rotate(270 4.2 4.2)"></use><use href="#tile" class="blue" transform="translate(142.8,226.8) rotate(180 4.2 4.2)"></use><use href="#tile" class="green" transform="translate(151.20000000000002,226.8) rotate(90 4.2 4.2)"></use><use href="#tile" class="green" transform="translate(159.6,226.8) rotate(0 4.2 4.2)"></use><use href="#tile" class="yellow" transform="translate(168,226.8) rotate(270 4.2 4.2)"></use><use href="#tile" class="blue" transform="translate(176.4,226.8) rotate(180 4.2 4.2)"></use><use href="#tile" class="blue" transform="translate(184.8,226.8) rotate(90 4.2 4.2)"></use><use href="#tile" class="green" transform="translate(193.20000000000002,226.8) rotate(0 4.2 4.2)"></use><use href="#tile" class="blue" transform="translate(201.60000000000002,226.8) rotate(270 4.2 4.2)"></use><use href="#tile" class="pink" transform="translate(0,235.20000000000002) rotate(0 4.2 4.2)"></use><use href="#tile" class="yellow" transform="translate(8.4,235.20000000000002) rotate(0 4.2 4.2)"></use><use href="#tile" class="blue" transform="translate(16.8,235.20000000000002) rotate(0 4.2 4.2)"></use><use href="#tile" class="blue" transform="translate(25.200000000000003,235.20000000000002) rotate(0 4.2 4.2)"></use><use href="#tile" class="yellow" transform="translate(33.6,235.20000000000002) rotate(0 4.2 4.2)"></use><use href="#tile" class="yellow" transform="translate(42,235.20000000000002) rotate(0 4.2 4.2)"></use><use href="#tile" class="green" transform="translate(50.400000000000006,235.20000000000002) rotate(0 4.2 4.2)"></use><use href="#tile" class="pink" transform="translate(58.800000000000004,235.20000000000002) rotate(0 4.2 4.2)"></use><use href="#tile" class="yellow" transform="translate(67.2,235.20000000000002) rotate(0 4.2 4.2)"></use><use href="#tile" class="pink" transform="translate(75.60000000000001,235.20000000000002) rotate(0 4.2 4.2)"></use><use href="#tile" class="blue" transform="translate(84,235.20000000000002) rotate(0 4.2 4.2)"></use><use href="#tile" class="green" transform="translate(92.4,235.20000000000002) rotate(0 4.2 4.2)"></use><use href="#tile" class="pink" transform="translate(100.80000000000001,235.20000000000002) rotate(0 4.2 4.2)"></use><use href="#tile" class="green" transform="translate(109.2,235.20000000000002) rotate(0 4.2 4.2)"></use><use href="#tile" class="blue" transform="translate(117.60000000000001,235.20000000000002) rotate(0 4.2 4.2)"></use><use href="#tile" class="yellow" transform="translate(126,235.20000000000002) rotate(0 4.2 4.2)"></use><use href="#tile" class="pink" transform="translate(134.4,235.20000000000002) rotate(0 4.2 4.2)"></use><use href="#tile" class="blue" transform="translate(142.8,235.20000000000002) rotate(0 4.2 4.2)"></use><use href="#tile" class="green" transform="translate(151.20000000000002,235.20000000000002) rotate(0 4.2 4.2)"></use><use href="#tile" class="blue" transform="translate(159.6,235.20000000000002) rotate(0 4.2 4.2)"></use><use href="#tile" class="pink" transform="translate(168,235.20000000000002) rotate(0 4.2 4.2)"></use><use href="#tile" class="yellow" transform="translate(176.4,235.20000000000002) rotate(0 4.2 4.2)"></use><use href="#tile" class="green" transform="translate(184.8,235.20000000000002) rotate(0 4.2 4.2)"></use><use href="#tile" class="yellow" transform="translate(193.20000000000002,235.20000000000002) rotate(0 4.2 4.2)"></use><use href="#tile" class="yellow" transform="translate(201.60000000000002,235.20000000000002) rotate(0 4.2 4.2)"></use><use href="#tile" class="blue" transform="translate(0,243.60000000000002) rotate(90 4.2 4.2)"></use><use href="#tile" class="pink" transform="translate(8.4,243.60000000000002) rotate(180 4.2 4.2)"></use><use href="#tile" class="yellow" transform="translate(16.8,243.60000000000002) rotate(270 4.2 4.2)"></use><use href="#tile" class="pink" transform="translate(25.200000000000003,243.60000000000002) rotate(0 4.2 4.2)"></use><use href="#tile" class="green" transform="translate(33.6,243.60000000000002) rotate(90 4.2 4.2)"></use><use href="#tile" class="pink" transform="translate(42,243.60000000000002) rotate(180 4.2 4.2)"></use><use href="#tile" class="green" transform="translate(50.400000000000006,243.60000000000002) rotate(270 4.2 4.2)"></use><use href="#tile" class="pink" transform="translate(58.800000000000004,243.60000000000002) rotate(0 4.2 4.2)"></use><use href="#tile" class="blue" transform="translate(67.2,243.60000000000002) rotate(90 4.2 4.2)"></use><use href="#tile" class="green" transform="translate(75.60000000000001,243.60000000000002) rotate(180 4.2 4.2)"></use><use href="#tile" class="yellow" transform="translate(84,243.60000000000002) rotate(270 4.2 4.2)"></use><use href="#tile" class="blue" transform="translate(92.4,243.60000000000002) rotate(0 4.2 4.2)"></use><use href="#tile" class="blue" transform="translate(100.80000000000001,243.60000000000002) rotate(90 4.2 4.2)"></use><use href="#tile" class="yellow" transform="translate(109.2,243.60000000000002) rotate(180 4.2 4.2)"></use><use href="#tile" class="pink" transform="translate(117.60000000000001,243.60000000000002) rotate(270 4.2 4.2)"></use><use href="#tile" class="green" transform="translate(126,243.60000000000002) rotate(0 4.2 4.2)"></use><use href="#tile" class="blue" transform="translate(134.4,243.60000000000002) rotate(90 4.2 4.2)"></use><use href="#tile" class="green" transform="translate(142.8,243.60000000000002) rotate(180 4.2 4.2)"></use><use href="#tile" class="yellow" transform="translate(151.20000000000002,243.60000000000002) rotate(270 4.2 4.2)"></use><use href="#tile" class="yellow" transform="translate(159.6,243.60000000000002) rotate(0 4.2 4.2)"></use><use href="#tile" class="blue" transform="translate(168,243.60000000000002) rotate(90 4.2 4.2)"></use><use href="#tile" class="green" transform="translate(176.4,243.60000000000002) rotate(180 4.2 4.2)"></use><use href="#tile" class="pink" transform="translate(184.8,243.60000000000002) rotate(270 4.2 4.2)"></use><use href="#tile" class="blue" transform="translate(193.20000000000002,243.60000000000002) rotate(0 4.2 4.2)"></use><use href="#tile" class="yellow" transform="translate(201.60000000000002,243.60000000000002) rotate(90 4.2 4.2)"></use><use href="#tile" class="yellow" transform="translate(0,252) rotate(180 4.2 4.2)"></use><use href="#tile" class="green" transform="translate(8.4,252) rotate(0 4.2 4.2)"></use><use href="#tile" class="green" transform="translate(16.8,252) rotate(180 4.2 4.2)"></use><use href="#tile" class="pink" transform="translate(25.200000000000003,252) rotate(0 4.2 4.2)"></use><use href="#tile" class="blue" transform="translate(33.6,252) rotate(180 4.2 4.2)"></use><use href="#tile" class="blue" transform="translate(42,252) rotate(0 4.2 4.2)"></use><use href="#tile" class="pink" transform="translate(50.400000000000006,252) rotate(180 4.2 4.2)"></use><use href="#tile" class="yellow" transform="translate(58.800000000000004,252) rotate(0 4.2 4.2)"></use><use href="#tile" class="blue" transform="translate(67.2,252) rotate(180 4.2 4.2)"></use><use href="#tile" class="pink" transform="translate(75.60000000000001,252) rotate(0 4.2 4.2)"></use><use href="#tile" class="pink" transform="translate(84,252) rotate(180 4.2 4.2)"></use><use href="#tile" class="blue" transform="translate(92.4,252) rotate(0 4.2 4.2)"></use><use href="#tile" class="pink" transform="translate(100.80000000000001,252) rotate(180 4.2 4.2)"></use><use href="#tile" class="green" transform="translate(109.2,252) rotate(0 4.2 4.2)"></use><use href="#tile" class="blue" transform="translate(117.60000000000001,252) rotate(180 4.2 4.2)"></use><use href="#tile" class="blue" transform="translate(126,252) rotate(0 4.2 4.2)"></use><use href="#tile" class="yellow" transform="translate(134.4,252) rotate(180 4.2 4.2)"></use><use href="#tile" class="green" transform="translate(142.8,252) rotate(0 4.2 4.2)"></use><use href="#tile" class="blue" transform="translate(151.20000000000002,252) rotate(180 4.2 4.2)"></use><use href="#tile" class="blue" transform="translate(159.6,252) rotate(0 4.2 4.2)"></use><use href="#tile" class="yellow" transform="translate(168,252) rotate(180 4.2 4.2)"></use><use href="#tile" class="green" transform="translate(176.4,252) rotate(0 4.2 4.2)"></use><use href="#tile" class="green" transform="translate(184.8,252) rotate(180 4.2 4.2)"></use><use href="#tile" class="pink" transform="translate(193.20000000000002,252) rotate(0 4.2 4.2)"></use><use href="#tile" class="yellow" transform="translate(201.60000000000002,252) rotate(180 4.2 4.2)"></use><use href="#tile" class="blue" transform="translate(0,260.40000000000003) rotate(270 4.2 4.2)"></use><use href="#tile" class="pink" transform="translate(8.4,260.40000000000003) rotate(180 4.2 4.2)"></use><use href="#tile" class="yellow" transform="translate(16.8,260.40000000000003) rotate(90 4.2 4.2)"></use><use href="#tile" class="pink" transform="translate(25.200000000000003,260.40000000000003) rotate(0 4.2 4.2)"></use><use href="#tile" class="yellow" transform="translate(33.6,260.40000000000003) rotate(270 4.2 4.2)"></use><use href="#tile" class="green" transform="translate(42,260.40000000000003) rotate(180 4.2 4.2)"></use><use href="#tile" class="yellow" transform="translate(50.400000000000006,260.40000000000003) rotate(90 4.2 4.2)"></use><use href="#tile" class="blue" transform="translate(58.800000000000004,260.40000000000003) rotate(0 4.2 4.2)"></use><use href="#tile" class="pink" transform="translate(67.2,260.40000000000003) rotate(270 4.2 4.2)"></use><use href="#tile" class="pink" transform="translate(75.60000000000001,260.40000000000003) rotate(180 4.2 4.2)"></use><use href="#tile" class="yellow" transform="translate(84,260.40000000000003) rotate(90 4.2 4.2)"></use><use href="#tile" class="green" transform="translate(92.4,260.40000000000003) rotate(0 4.2 4.2)"></use><use href="#tile" class="green" transform="translate(100.80000000000001,260.40000000000003) rotate(270 4.2 4.2)"></use><use href="#tile" class="yellow" transform="translate(109.2,260.40000000000003) rotate(180 4.2 4.2)"></use><use href="#tile" class="blue" transform="translate(117.60000000000001,260.40000000000003) rotate(90 4.2 4.2)"></use><use href="#tile" class="pink" transform="translate(126,260.40000000000003) rotate(0 4.2 4.2)"></use><use href="#tile" class="yellow" transform="translate(134.4,260.40000000000003) rotate(270 4.2 4.2)"></use><use href="#tile" class="yellow" transform="translate(142.8,260.40000000000003) rotate(180 4.2 4.2)"></use><use href="#tile" class="blue" transform="translate(151.20000000000002,260.40000000000003) rotate(90 4.2 4.2)"></use><use href="#tile" class="yellow" transform="translate(159.6,260.40000000000003) rotate(0 4.2 4.2)"></use><use href="#tile" class="yellow" transform="translate(168,260.40000000000003) rotate(270 4.2 4.2)"></use><use href="#tile" class="pink" transform="translate(176.4,260.40000000000003) rotate(180 4.2 4.2)"></use><use href="#tile" class="green" transform="translate(184.8,260.40000000000003) rotate(90 4.2 4.2)"></use><use href="#tile" class="yellow" transform="translate(193.20000000000002,260.40000000000003) rotate(0 4.2 4.2)"></use><use href="#tile" class="pink" transform="translate(201.60000000000002,260.40000000000003) rotate(270 4.2 4.2)"></use><use href="#tile" class="pink" transform="translate(0,268.8) rotate(0 4.2 4.2)"></use><use href="#tile" class="blue" transform="translate(8.4,268.8) rotate(0 4.2 4.2)"></use><use href="#tile" class="yellow" transform="translate(16.8,268.8) rotate(0 4.2 4.2)"></use><use href="#tile" class="yellow" transform="translate(25.200000000000003,268.8) rotate(0 4.2 4.2)"></use><use href="#tile" class="blue" transform="translate(33.6,268.8) rotate(0 4.2 4.2)"></use><use href="#tile" class="green" transform="translate(42,268.8) rotate(0 4.2 4.2)"></use><use href="#tile" class="pink" transform="translate(50.400000000000006,268.8) rotate(0 4.2 4.2)"></use><use href="#tile" class="yellow" transform="translate(58.800000000000004,268.8) rotate(0 4.2 4.2)"></use><use href="#tile" class="yellow" transform="translate(67.2,268.8) rotate(0 4.2 4.2)"></use><use href="#tile" class="yellow" transform="translate(75.60000000000001,268.8) rotate(0 4.2 4.2)"></use><use href="#tile" class="pink" transform="translate(84,268.8) rotate(0 4.2 4.2)"></use><use href="#tile" class="green" transform="translate(92.4,268.8) rotate(0 4.2 4.2)"></use><use href="#tile" class="pink" transform="translate(100.80000000000001,268.8) rotate(0 4.2 4.2)"></use><use href="#tile" class="pink" transform="translate(109.2,268.8) rotate(0 4.2 4.2)"></use><use href="#tile" class="green" transform="translate(117.60000000000001,268.8) rotate(0 4.2 4.2)"></use><use href="#tile" class="green" transform="translate(126,268.8) rotate(0 4.2 4.2)"></use><use href="#tile" class="pink" transform="translate(134.4,268.8) rotate(0 4.2 4.2)"></use><use href="#tile" class="yellow" transform="translate(142.8,268.8) rotate(0 4.2 4.2)"></use><use href="#tile" class="blue" transform="translate(151.20000000000002,268.8) rotate(0 4.2 4.2)"></use><use href="#tile" class="blue" transform="translate(159.6,268.8) rotate(0 4.2 4.2)"></use><use href="#tile" class="blue" transform="translate(168,268.8) rotate(0 4.2 4.2)"></use><use href="#tile" class="blue" transform="translate(176.4,268.8) rotate(0 4.2 4.2)"></use><use href="#tile" class="pink" transform="translate(184.8,268.8) rotate(0 4.2 4.2)"></use><use href="#tile" class="green" transform="translate(193.20000000000002,268.8) rotate(0 4.2 4.2)"></use><use href="#tile" class="blue" transform="translate(201.60000000000002,268.8) rotate(0 4.2 4.2)"></use><use href="#tile" class="blue" transform="translate(0,277.2) rotate(90 4.2 4.2)"></use><use href="#tile" class="yellow" transform="translate(8.4,277.2) rotate(180 4.2 4.2)"></use><use href="#tile" class="pink" transform="translate(16.8,277.2) rotate(270 4.2 4.2)"></use><use href="#tile" class="yellow" transform="translate(25.200000000000003,277.2) rotate(0 4.2 4.2)"></use><use href="#tile" class="pink" transform="translate(33.6,277.2) rotate(90 4.2 4.2)"></use><use href="#tile" class="blue" transform="translate(42,277.2) rotate(180 4.2 4.2)"></use><use href="#tile" class="pink" transform="translate(50.400000000000006,277.2) rotate(270 4.2 4.2)"></use><use href="#tile" class="blue" transform="translate(58.800000000000004,277.2) rotate(0 4.2 4.2)"></use><use href="#tile" class="yellow" transform="translate(67.2,277.2) rotate(90 4.2 4.2)"></use><use href="#tile" class="pink" transform="translate(75.60000000000001,277.2) rotate(180 4.2 4.2)"></use><use href="#tile" class="green" transform="translate(84,277.2) rotate(270 4.2 4.2)"></use><use href="#tile" class="pink" transform="translate(92.4,277.2) rotate(0 4.2 4.2)"></use><use href="#tile" class="blue" transform="translate(100.80000000000001,277.2) rotate(90 4.2 4.2)"></use><use href="#tile" class="green" transform="translate(109.2,277.2) rotate(180 4.2 4.2)"></use><use href="#tile" class="yellow" transform="translate(117.60000000000001,277.2) rotate(270 4.2 4.2)"></use><use href="#tile" class="green" transform="translate(126,277.2) rotate(0 4.2 4.2)"></use><use href="#tile" class="pink" transform="translate(134.4,277.2) rotate(90 4.2 4.2)"></use><use href="#tile" class="yellow" transform="translate(142.8,277.2) rotate(180 4.2 4.2)"></use><use href="#tile" class="pink" transform="translate(151.20000000000002,277.2) rotate(270 4.2 4.2)"></use><use href="#tile" class="yellow" transform="translate(159.6,277.2) rotate(0 4.2 4.2)"></use><use href="#tile" class="pink" transform="translate(168,277.2) rotate(90 4.2 4.2)"></use><use href="#tile" class="pink" transform="translate(176.4,277.2) rotate(180 4.2 4.2)"></use><use href="#tile" class="green" transform="translate(184.8,277.2) rotate(270 4.2 4.2)"></use><use href="#tile" class="pink" transform="translate(193.20000000000002,277.2) rotate(0 4.2 4.2)"></use><use href="#tile" class="yellow" transform="translate(201.60000000000002,277.2) rotate(90 4.2 4.2)"></use><use href="#tile" class="green" transform="translate(0,285.6) rotate(180 4.2 4.2)"></use><use href="#tile" class="yellow" transform="translate(8.4,285.6) rotate(0 4.2 4.2)"></use><use href="#tile" class="yellow" transform="translate(16.8,285.6) rotate(180 4.2 4.2)"></use><use href="#tile" class="yellow" transform="translate(25.200000000000003,285.6) rotate(0 4.2 4.2)"></use><use href="#tile" class="pink" transform="translate(33.6,285.6) rotate(180 4.2 4.2)"></use><use href="#tile" class="pink" transform="translate(42,285.6) rotate(0 4.2 4.2)"></use><use href="#tile" class="pink" transform="translate(50.400000000000006,285.6) rotate(180 4.2 4.2)"></use><use href="#tile" class="yellow" transform="translate(58.800000000000004,285.6) rotate(0 4.2 4.2)"></use><use href="#tile" class="green" transform="translate(67.2,285.6) rotate(180 4.2 4.2)"></use><use href="#tile" class="blue" transform="translate(75.60000000000001,285.6) rotate(0 4.2 4.2)"></use><use href="#tile" class="blue" transform="translate(84,285.6) rotate(180 4.2 4.2)"></use><use href="#tile" class="yellow" transform="translate(92.4,285.6) rotate(0 4.2 4.2)"></use><use href="#tile" class="blue" transform="translate(100.80000000000001,285.6) rotate(180 4.2 4.2)"></use><use href="#tile" class="blue" transform="translate(109.2,285.6) rotate(0 4.2 4.2)"></use><use href="#tile" class="yellow" transform="translate(117.60000000000001,285.6) rotate(180 4.2 4.2)"></use><use href="#tile" class="pink" transform="translate(126,285.6) rotate(0 4.2 4.2)"></use><use href="#tile" class="blue" transform="translate(134.4,285.6) rotate(180 4.2 4.2)"></use><use href="#tile" class="green" transform="translate(142.8,285.6) rotate(0 4.2 4.2)"></use><use href="#tile" class="yellow" transform="translate(151.20000000000002,285.6) rotate(180 4.2 4.2)"></use><use href="#tile" class="pink" transform="translate(159.6,285.6) rotate(0 4.2 4.2)"></use><use href="#tile" class="yellow" transform="translate(168,285.6) rotate(180 4.2 4.2)"></use><use href="#tile" class="yellow" transform="translate(176.4,285.6) rotate(0 4.2 4.2)"></use><use href="#tile" class="yellow" transform="translate(184.8,285.6) rotate(180 4.2 4.2)"></use><use href="#tile" class="pink" transform="translate(193.20000000000002,285.6) rotate(0 4.2 4.2)"></use><use href="#tile" class="pink" transform="translate(201.60000000000002,285.6) rotate(180 4.2 4.2)"></use></svg>